<?xml version="1.0" encoding="UTF-8" standalone="no"?>
<svg
   xmlns:dc="http://purl.org/dc/elements/1.1/"
   xmlns:cc="http://creativecommons.org/ns#"
   xmlns:rdf="http://www.w3.org/1999/02/22-rdf-syntax-ns#"
   xmlns:svg="http://www.w3.org/2000/svg"
   xmlns="http://www.w3.org/2000/svg"
   xmlns:sodipodi="http://sodipodi.sourceforge.net/DTD/sodipodi-0.dtd"
   xmlns:inkscape="http://www.inkscape.org/namespaces/inkscape"
   version="1.1"
   x="0px"
   y="0px"
   viewBox="0 0 120 120"
   xml:space="preserve"
   id="svg30"
   sodipodi:docname="blog-author-you.svg"
   width="120"
   height="120"
   inkscape:version="0.92.3 (2405546, 2018-03-11)"><metadata
     id="metadata36"><rdf:RDF><cc:Work
         rdf:about=""><dc:format>image/svg+xml</dc:format><dc:type
           rdf:resource="http://purl.org/dc/dcmitype/StillImage" /><dc:title></dc:title></cc:Work></rdf:RDF></metadata><defs
     id="defs34" /><sodipodi:namedview
     pagecolor="#ffffff"
     bordercolor="#666666"
     borderopacity="1"
     objecttolerance="10"
     gridtolerance="10"
     guidetolerance="10"
     inkscape:pageopacity="0"
     inkscape:pageshadow="2"
     inkscape:window-width="1920"
     inkscape:window-height="1021"
     id="namedview32"
     showgrid="false"
     fit-margin-top="10"
     fit-margin-right="10"
     fit-margin-bottom="10"
     fit-margin-left="10"
     inkscape:zoom="1.3350176"
     inkscape:cx="110.72189"
     inkscape:cy="8.4317238"
     inkscape:window-x="0"
     inkscape:window-y="390"
     inkscape:window-maximized="1"
     inkscape:current-layer="svg30" /><rect
     style="color:#000000;clip-rule:nonzero;display:inline;overflow:visible;visibility:visible;opacity:1;isolation:auto;mix-blend-mode:normal;color-interpolation:sRGB;color-interpolation-filters:linearRGB;solid-color:#000000;solid-opacity:1;vector-effect:none;fill:#e6e1ff;fill-opacity:1;fill-rule:nonzero;stroke:none;stroke-width:1.13100004;stroke-linecap:butt;stroke-linejoin:miter;stroke-miterlimit:10;stroke-dasharray:none;stroke-dashoffset:0;stroke-opacity:1;color-rendering:auto;image-rendering:auto;shape-rendering:auto;text-rendering:auto;enable-background:accumulate"
     id="rect887"
     width="120.59766"
     height="120.22314"
     x="-0.18726344"
     y="-0.035870526" /><g
     id="g24"
     transform="rotate(12.037885,7.5789937,102.42101)"><path
       d="m 59.632,75.107 v -2.822 c 0,-4.96 2.015,-9.725 5.529,-13.073 4.396,-4.189 6.817,-9.839 6.817,-15.909 0,-12.119 -9.859,-21.978 -21.978,-21.978 -0.827,0 -1.667,0.046 -2.496,0.138 -10.5,1.161 -18.86,10.013 -19.447,20.591 -0.354,6.379 2.066,12.583 6.64,17.02 3.604,3.496 5.671,8.31 5.671,13.208 v 2.824 c 0,2.999 2.439,5.438 5.438,5.438 h 8.387 c 2.999,0.002 5.439,-2.438 5.439,-5.437 z m -4,0 c 0,0.793 -0.646,1.438 -1.438,1.438 h -8.387 c -0.793,0 -1.438,-0.646 -1.438,-1.438 v -2.824 c 0,-5.973 -2.51,-11.833 -6.886,-16.079 -3.741,-3.629 -5.721,-8.706 -5.431,-13.927 0.48,-8.65 7.312,-15.888 15.893,-16.837 0.684,-0.076 1.376,-0.114 2.057,-0.114 9.913,0 17.978,8.064 17.978,17.978 0,4.965 -1.98,9.586 -5.576,13.013 -4.302,4.099 -6.77,9.919 -6.77,15.969 v 2.821 z"
       id="path2"
       inkscape:connector-curvature="0" /><path
       d="M 56.509,82.521 H 43.491 c -0.829,0 -1.5,0.671 -1.5,1.5 0,0.829 0.671,1.5 1.5,1.5 H 56.51 c 0.829,0 1.5,-0.671 1.5,-1.5 0,-0.829 -0.672,-1.5 -1.501,-1.5 z"
       id="path4"
       inkscape:connector-curvature="0" /><path
       d="m 58.009,88.761 c 0,-0.829 -0.671,-1.5 -1.5,-1.5 H 43.491 c -0.829,0 -1.5,0.671 -1.5,1.5 0,0.829 0.671,1.5 1.5,1.5 H 56.51 c 0.828,0 1.499,-0.672 1.499,-1.5 z"
       id="path6"
       inkscape:connector-curvature="0" /><path
       d="m 14.733,43.267 h 8.643 c 0.829,0 1.5,-0.671 1.5,-1.5 0,-0.829 -0.671,-1.5 -1.5,-1.5 h -8.643 c -0.829,0 -1.5,0.671 -1.5,1.5 0,0.829 0.671,1.5 1.5,1.5 z"
       id="path8"
       inkscape:connector-curvature="0" /><path
       d="m 86.767,41.767 c 0,-0.829 -0.671,-1.5 -1.5,-1.5 h -8.643 c -0.829,0 -1.5,0.671 -1.5,1.5 0,0.829 0.671,1.5 1.5,1.5 h 8.643 c 0.829,0 1.5,-0.671 1.5,-1.5 z"
       id="path10"
       inkscape:connector-curvature="0" /><path
       d="m 48.5,6.5 v 8.643 c 0,0.829 0.671,1.5 1.5,1.5 0.829,0 1.5,-0.671 1.5,-1.5 V 6.5 C 51.5,5.671 50.829,5 50,5 49.171,5 48.5,5.671 48.5,6.5 Z"
       id="path12"
       inkscape:connector-curvature="0" /><path
       d="m 73.877,15.769 -6.111,6.111 c -0.586,0.585 -0.586,1.536 0,2.121 0.293,0.293 0.677,0.439 1.061,0.439 0.384,0 0.768,-0.146 1.061,-0.439 l 6.111,-6.111 c 0.586,-0.585 0.586,-1.536 0,-2.121 -0.587,-0.586 -1.536,-0.586 -2.122,0 z"
       id="path14"
       inkscape:connector-curvature="0" /><path
       d="m 32.234,59.533 c -0.586,-0.586 -1.535,-0.586 -2.121,0 l -6.111,6.111 c -0.586,0.585 -0.586,1.535 0,2.121 0.293,0.293 0.677,0.439 1.061,0.439 0.384,0 0.768,-0.146 1.061,-0.439 l 6.111,-6.111 c 0.585,-0.585 0.585,-1.535 -10e-4,-2.121 z"
       id="path16"
       inkscape:connector-curvature="0" /><path
       d="m 30.113,24.001 c 0.293,0.293 0.677,0.439 1.061,0.439 0.384,0 0.768,-0.146 1.061,-0.439 0.586,-0.585 0.586,-1.536 0,-2.121 l -6.111,-6.111 c -0.586,-0.586 -1.535,-0.586 -2.121,0 -0.586,0.585 -0.586,1.536 0,2.121 z"
       id="path18"
       inkscape:connector-curvature="0" /><path
       d="m 73.877,67.765 c 0.293,0.293 0.677,0.439 1.061,0.439 0.384,0 0.768,-0.146 1.061,-0.439 0.586,-0.586 0.586,-1.536 0,-2.121 l -6.111,-6.111 c -0.586,-0.586 -1.535,-0.586 -2.121,0 -0.586,0.586 -0.586,1.536 0,2.121 z"
       id="path20"
       inkscape:connector-curvature="0" /><path
       d="m 54.754,93.5 c 0,-0.829 -0.671,-1.5 -1.5,-1.5 h -6.509 c -0.829,0 -1.5,0.671 -1.5,1.5 0,0.829 0.671,1.5 1.5,1.5 h 6.509 c 0.829,0 1.5,-0.671 1.5,-1.5 z"
       id="path22"
       inkscape:connector-curvature="0" /></g><path
     style="color:#000000;clip-rule:nonzero;display:inline;overflow:visible;visibility:visible;opacity:1;isolation:auto;mix-blend-mode:normal;color-interpolation:sRGB;color-interpolation-filters:linearRGB;solid-color:#000000;solid-opacity:1;vector-effect:none;fill:#ffdd55;fill-opacity:1;fill-rule:nonzero;stroke:#8d8d8d;stroke-width:0.21179497;stroke-linecap:butt;stroke-linejoin:miter;stroke-miterlimit:10;stroke-dasharray:none;stroke-dashoffset:0;stroke-opacity:1;color-rendering:auto;image-rendering:auto;shape-rendering:auto;text-rendering:auto;enable-background:accumulate"
     d="m 49.673166,84.47509 c -0.371854,-0.446733 -0.367909,-0.526324 0.176104,-3.552582 0.77868,-4.331682 0.712807,-7.138253 -0.252088,-10.740398 -0.618808,-2.310132 -1.348277,-3.956681 -2.866381,-6.469961 -1.548319,-2.563305 -2.082496,-3.751015 -2.610744,-5.80482 -1.930218,-7.5046 1.091652,-15.195098 7.638996,-19.44084 8.957076,-5.808377 20.86293,-2.525769 25.632201,7.067152 3.080375,6.195871 2.294633,13.616116 -2.016575,19.043765 -1.27626,1.606765 -2.437855,2.632505 -4.804023,4.242167 -2.345498,1.595602 -3.80121,2.897521 -5.226327,4.674173 -2.384545,2.972745 -3.507516,5.335929 -4.560966,9.598093 -1.052042,4.256465 -0.517635,4.017947 -6.25913,2.793587 -4.165256,-0.888232 -4.496678,-0.984582 -4.851067,-1.410336 z"
     id="path885"
     inkscape:connector-curvature="0" /></svg>