<?xml version="1.0" encoding="UTF-8" standalone="no"?>
<!-- Created with Inkscape (http://www.inkscape.org/) -->
<svg
   xmlns:dc="http://purl.org/dc/elements/1.1/"
   xmlns:cc="http://web.resource.org/cc/"
   xmlns:rdf="http://www.w3.org/1999/02/22-rdf-syntax-ns#"
   xmlns:svg="http://www.w3.org/2000/svg"
   xmlns="http://www.w3.org/2000/svg"
   xmlns:sodipodi="http://inkscape.sourceforge.net/DTD/sodipodi-0.dtd"
   xmlns:inkscape="http://www.inkscape.org/namespaces/inkscape"
   width="210mm"
   height="297mm"
   id="svg2253"
   sodipodi:version="0.32"
   inkscape:version="0.42.2"
   sodipodi:docbase="/mnt/data/Heribert/Bilder/vektorgrafiken/Toilettenschilder"
   sodipodi:docname="Toilettenschilder Druck.svg">
  <defs
     id="defs3" />
  <sodipodi:namedview
     inkscape:document-units="mm"
     id="base"
     pagecolor="#ffffff"
     bordercolor="#666666"
     borderopacity="1.0"
     inkscape:pageopacity="0.0"
     inkscape:pageshadow="2"
     inkscape:zoom="0.49497475"
     inkscape:cx="444.87616"
     inkscape:cy="568.74208"
     inkscape:current-layer="layer1"
     inkscape:window-width="928"
     inkscape:window-height="674"
     inkscape:window-x="0"
     inkscape:window-y="28" />
  <metadata
     id="metadata4">
    <rdf:RDF>
      <cc:Work
         rdf:about="">
        <dc:format>image/svg+xml</dc:format>
        <dc:type
           rdf:resource="http://purl.org/dc/dcmitype/StillImage" />
        <dc:title>toilet signs</dc:title>
        <dc:date>03.11.2005</dc:date>
        <dc:creator>
          <cc:Agent>
            <dc:title>sven</dc:title>
          </cc:Agent>
        </dc:creator>
        <dc:rights>
          <cc:Agent>
            <dc:title>public domain</dc:title>
          </cc:Agent>
        </dc:rights>
        <dc:publisher>
          <cc:Agent>
            <dc:title>sven</dc:title>
          </cc:Agent>
        </dc:publisher>
        <dc:subject>
          <rdf:Bag>
            <rdf:li>Toilette</rdf:li>
            <rdf:li>toilet</rdf:li>
            <rdf:li>sign</rdf:li>
            <rdf:li>schild</rdf:li>
            <rdf:li>man</rdf:li>
            <rdf:li>woman</rdf:li>
            <rdf:li>...</rdf:li>
          </rdf:Bag>
        </dc:subject>
        <dc:description>This shows a typical toilet sign that shows you where the toilet is, and two signs for man toilets and woman toilets. Only one color, easy to edit.</dc:description>
        <cc:license
           rdf:resource="http://web.resource.org/cc/PublicDomain" />
      </cc:Work>
      <cc:License
         rdf:about="http://web.resource.org/cc/PublicDomain">
        <cc:permits
           rdf:resource="http://web.resource.org/cc/Reproduction" />
        <cc:permits
           rdf:resource="http://web.resource.org/cc/Distribution" />
        <cc:permits
           rdf:resource="http://web.resource.org/cc/DerivativeWorks" />
      </cc:License>
    </rdf:RDF>
  </metadata>
  <g
     inkscape:label="Layer 1"
     inkscape:groupmode="layer"
     id="layer1">
    <rect
       style="opacity:1.0000000;color:#000000;fill:#0000cc;fill-opacity:1.0000000;fill-rule:evenodd;stroke:#000000;stroke-width:1.8077461;stroke-linecap:round;stroke-linejoin:miter;marker:none;marker-start:none;marker-mid:none;marker-end:none;stroke-miterlimit:10.000000;stroke-dasharray:none;stroke-dashoffset:0.0000000;stroke-opacity:1.0000000;visibility:visible;display:inline;overflow:visible"
       id="rect2282"
       width="608.19958"
       height="495.11642"
       x="64.780235"
       y="56.758968"
       ry="25.253813"
       rx="24.243662" />
    <rect
       style="opacity:1.0000000;color:#000000;fill:none;fill-opacity:1.0000000;fill-rule:evenodd;stroke:#ffffff;stroke-width:20.897539;stroke-linecap:round;stroke-linejoin:miter;marker:none;marker-start:none;marker-mid:none;marker-end:none;stroke-miterlimit:10.000000;stroke-dasharray:none;stroke-dashoffset:0.0000000;stroke-opacity:1.0000000;visibility:visible;display:inline;overflow:visible"
       id="rect2284"
       width="554.38849"
       height="446.54391"
       x="91.685806"
       y="81.045204"
       rx="24.243662"
       ry="25.253813" />
    <g
       id="g3044"
       style="fill:#ffffff;fill-opacity:1.0000000"
       transform="matrix(2.439957,0.000000,0.000000,2.439957,1.970672,-127.0111)">
      <path
         sodipodi:type="arc"
         style="opacity:1.0000000;color:#000000;fill:#ffffff;fill-opacity:1.0000000;fill-rule:evenodd;stroke:none;stroke-width:8.8582678;stroke-linecap:round;stroke-linejoin:miter;marker:none;marker-start:none;marker-mid:none;marker-end:none;stroke-miterlimit:10.000000;stroke-dasharray:none;stroke-dashoffset:0.0000000;stroke-opacity:1.0000000;visibility:visible;display:inline;overflow:visible"
         id="path3028"
         sodipodi:cx="453.75000"
         sodipodi:cy="106.64790"
         sodipodi:rx="6.6071429"
         sodipodi:ry="10.357142"
         d="M 460.35714 106.64790 A 6.6071429 10.357142 0 1 1  447.14286,106.64790 A 6.6071429 10.357142 0 1 1  460.35714 106.64790 z"
         transform="matrix(1.540541,0.000000,0.000000,1.258620,-548.4845,-20.97422)" />
      <rect
         style="opacity:1.0000000;color:#000000;fill:#ffffff;fill-opacity:1.0000000;fill-rule:evenodd;stroke:none;stroke-width:8.8582678;stroke-linecap:round;stroke-linejoin:miter;marker:none;marker-start:none;marker-mid:none;marker-end:none;stroke-miterlimit:10.000000;stroke-dasharray:none;stroke-dashoffset:0.0000000;stroke-opacity:1.0000000;visibility:visible;display:inline;overflow:visible"
         id="rect3030"
         width="10.000052"
         height="63.928524"
         x="125.71429"
         y="128.43362"
         rx="1.8296587"
         ry="2.2996120" />
      <rect
         ry="2.2996120"
         rx="1.8296587"
         y="128.43362"
         x="165.35715"
         height="63.928524"
         width="10.000052"
         id="rect3032"
         style="opacity:1.0000000;color:#000000;fill:#ffffff;fill-opacity:1.0000000;fill-rule:evenodd;stroke:none;stroke-width:8.8582678;stroke-linecap:round;stroke-linejoin:miter;marker:none;marker-start:none;marker-mid:none;marker-end:none;stroke-miterlimit:10.000000;stroke-dasharray:none;stroke-dashoffset:0.0000000;stroke-opacity:1.0000000;visibility:visible;display:inline;overflow:visible" />
      <rect
         style="opacity:1.0000000;color:#000000;fill:#ffffff;fill-opacity:1.0000000;fill-rule:evenodd;stroke:none;stroke-width:8.8582678;stroke-linecap:round;stroke-linejoin:miter;marker:none;marker-start:none;marker-mid:none;marker-end:none;stroke-miterlimit:10.000000;stroke-dasharray:none;stroke-dashoffset:0.0000000;stroke-opacity:1.0000000;visibility:visible;display:inline;overflow:visible"
         id="rect3034"
         width="49.311127"
         height="18.257614"
         x="126.11475"
         y="126.96170"
         rx="2.9681699"
         ry="2.2996120" />
      <rect
         style="opacity:1.0000000;color:#000000;fill:#ffffff;fill-opacity:1.0000000;fill-rule:evenodd;stroke:none;stroke-width:8.8582678;stroke-linecap:round;stroke-linejoin:miter;marker:none;marker-start:none;marker-mid:none;marker-end:none;stroke-miterlimit:10.000000;stroke-dasharray:none;stroke-dashoffset:0.0000000;stroke-opacity:1.0000000;visibility:visible;display:inline;overflow:visible"
         id="rect3036"
         width="26.263966"
         height="45.709404"
         x="137.34595"
         y="139.68193"
         rx="2.9681699"
         ry="2.2996120" />
      <rect
         style="opacity:1.0000000;color:#000000;fill:#ffffff;fill-opacity:1.0000000;fill-rule:evenodd;stroke:none;stroke-width:8.8582678;stroke-linecap:round;stroke-linejoin:miter;marker:none;marker-start:none;marker-mid:none;marker-end:none;stroke-miterlimit:10.000000;stroke-dasharray:none;stroke-dashoffset:0.0000000;stroke-opacity:1.0000000;visibility:visible;display:inline;overflow:visible"
         id="rect3038"
         width="11.582652"
         height="76.334892"
         x="137.34592"
         y="173.77458"
         rx="2.3735340"
         ry="2.2996120" />
      <rect
         ry="2.2996120"
         rx="2.3735340"
         y="173.77458"
         x="137.34592"
         height="76.334892"
         width="11.582652"
         id="rect3040"
         style="opacity:1.0000000;color:#000000;fill:#ffffff;fill-opacity:1.0000000;fill-rule:evenodd;stroke:none;stroke-width:8.8582678;stroke-linecap:round;stroke-linejoin:miter;marker:none;marker-start:none;marker-mid:none;marker-end:none;stroke-miterlimit:10.000000;stroke-dasharray:none;stroke-dashoffset:0.0000000;stroke-opacity:1.0000000;visibility:visible;display:inline;overflow:visible" />
      <rect
         style="opacity:1.0000000;color:#000000;fill:#ffffff;fill-opacity:1.0000000;fill-rule:evenodd;stroke:none;stroke-width:8.8582678;stroke-linecap:round;stroke-linejoin:miter;marker:none;marker-start:none;marker-mid:none;marker-end:none;stroke-miterlimit:10.000000;stroke-dasharray:none;stroke-dashoffset:0.0000000;stroke-opacity:1.0000000;visibility:visible;display:inline;overflow:visible"
         id="rect3042"
         width="11.582652"
         height="76.334892"
         x="151.88977"
         y="173.77458"
         rx="2.3735340"
         ry="2.2996120" />
    </g>
    <g
       id="g3091"
       style="fill:#ffffff;fill-opacity:1.0000000"
       transform="matrix(2.439957,0.000000,0.000000,2.439957,-12.81769,-116.5541)">
      <path
         transform="matrix(1.540541,0.000000,0.000000,1.258620,-479.4718,-25.25993)"
         d="M 460.35714 106.64790 A 6.6071429 10.357142 0 1 1  447.14286,106.64790 A 6.6071429 10.357142 0 1 1  460.35714 106.64790 z"
         sodipodi:ry="10.357142"
         sodipodi:rx="6.6071429"
         sodipodi:cy="106.64790"
         sodipodi:cx="453.75000"
         id="path3073"
         style="opacity:1.0000000;color:#000000;fill:#ffffff;fill-opacity:1.0000000;fill-rule:evenodd;stroke:none;stroke-width:8.8582678;stroke-linecap:round;stroke-linejoin:miter;marker:none;marker-start:none;marker-mid:none;marker-end:none;stroke-miterlimit:10.000000;stroke-dasharray:none;stroke-dashoffset:0.0000000;stroke-opacity:1.0000000;visibility:visible;display:inline;overflow:visible"
         sodipodi:type="arc" />
      <rect
         ry="2.2996120"
         rx="1.8296587"
         y="124.14790"
         x="194.72697"
         height="45.745777"
         width="10.000052"
         id="rect3075"
         style="opacity:1.0000000;color:#000000;fill:#ffffff;fill-opacity:1.0000000;fill-rule:evenodd;stroke:none;stroke-width:8.8582678;stroke-linecap:round;stroke-linejoin:miter;marker:none;marker-start:none;marker-mid:none;marker-end:none;stroke-miterlimit:10.000000;stroke-dasharray:none;stroke-dashoffset:0.0000000;stroke-opacity:1.0000000;visibility:visible;display:inline;overflow:visible" />
      <rect
         style="opacity:1.0000000;color:#000000;fill:#ffffff;fill-opacity:1.0000000;fill-rule:evenodd;stroke:none;stroke-width:8.8582678;stroke-linecap:round;stroke-linejoin:miter;marker:none;marker-start:none;marker-mid:none;marker-end:none;stroke-miterlimit:10.000000;stroke-dasharray:none;stroke-dashoffset:0.0000000;stroke-opacity:1.0000000;visibility:visible;display:inline;overflow:visible"
         id="rect3077"
         width="10.000052"
         height="45.745777"
         x="234.36986"
         y="124.14790"
         rx="1.8296587"
         ry="2.2996120" />
      <rect
         ry="2.2996120"
         rx="2.9681699"
         y="122.67599"
         x="195.12743"
         height="18.257614"
         width="49.311127"
         id="rect3079"
         style="opacity:1.0000000;color:#000000;fill:#ffffff;fill-opacity:1.0000000;fill-rule:evenodd;stroke:none;stroke-width:8.8582678;stroke-linecap:round;stroke-linejoin:miter;marker:none;marker-start:none;marker-mid:none;marker-end:none;stroke-miterlimit:10.000000;stroke-dasharray:none;stroke-dashoffset:0.0000000;stroke-opacity:1.0000000;visibility:visible;display:inline;overflow:visible" />
      <rect
         ry="2.2996120"
         rx="2.9681699"
         y="135.39621"
         x="206.35863"
         height="37.123108"
         width="26.263966"
         id="rect3081"
         style="opacity:1.0000000;color:#000000;fill:#ffffff;fill-opacity:1.0000000;fill-rule:evenodd;stroke:none;stroke-width:8.8582678;stroke-linecap:round;stroke-linejoin:miter;marker:none;marker-start:none;marker-mid:none;marker-end:none;stroke-miterlimit:10.000000;stroke-dasharray:none;stroke-dashoffset:0.0000000;stroke-opacity:1.0000000;visibility:visible;display:inline;overflow:visible" />
      <rect
         ry="2.2996120"
         rx="2.3735340"
         y="169.48886"
         x="206.35863"
         height="76.334892"
         width="11.582652"
         id="rect3083"
         style="opacity:1.0000000;color:#000000;fill:#ffffff;fill-opacity:1.0000000;fill-rule:evenodd;stroke:none;stroke-width:8.8582678;stroke-linecap:round;stroke-linejoin:miter;marker:none;marker-start:none;marker-mid:none;marker-end:none;stroke-miterlimit:10.000000;stroke-dasharray:none;stroke-dashoffset:0.0000000;stroke-opacity:1.0000000;visibility:visible;display:inline;overflow:visible" />
      <rect
         style="opacity:1.0000000;color:#000000;fill:#ffffff;fill-opacity:1.0000000;fill-rule:evenodd;stroke:none;stroke-width:8.8582678;stroke-linecap:round;stroke-linejoin:miter;marker:none;marker-start:none;marker-mid:none;marker-end:none;stroke-miterlimit:10.000000;stroke-dasharray:none;stroke-dashoffset:0.0000000;stroke-opacity:1.0000000;visibility:visible;display:inline;overflow:visible"
         id="rect3085"
         width="11.582652"
         height="76.334892"
         x="206.35863"
         y="169.48886"
         rx="2.3735340"
         ry="2.2996120" />
      <rect
         ry="2.2996120"
         rx="2.3735340"
         y="169.48886"
         x="220.90245"
         height="76.334892"
         width="11.582652"
         id="rect3087"
         style="opacity:1.0000000;color:#000000;fill:#ffffff;fill-opacity:1.0000000;fill-rule:evenodd;stroke:none;stroke-width:8.8582678;stroke-linecap:round;stroke-linejoin:miter;marker:none;marker-start:none;marker-mid:none;marker-end:none;stroke-miterlimit:10.000000;stroke-dasharray:none;stroke-dashoffset:0.0000000;stroke-opacity:1.0000000;visibility:visible;display:inline;overflow:visible" />
      <path
         style="color:#000000;fill:#ffffff;fill-opacity:1.0000000;fill-rule:evenodd;stroke:none;stroke-width:8.8582678;stroke-linecap:round;stroke-linejoin:miter;marker:none;marker-start:none;marker-mid:none;marker-end:none;stroke-miterlimit:10.000000;stroke-dashoffset:0.0000000;stroke-opacity:1.0000000;visibility:visible;display:inline;overflow:visible"
         d="M 206.20572,166.20586 L 232.97476,166.20586 L 244.59151,194.99520 L 195.09404,194.99520 L 206.20572,166.20586 z "
         id="path3089"
         sodipodi:nodetypes="ccccc" />
    </g>
    <path
       style="color:#000000;fill:#ffffff;fill-opacity:1.0000000;fill-rule:evenodd;stroke:none;stroke-width:8.8582678;stroke-linecap:round;stroke-linejoin:miter;marker:none;marker-start:none;marker-mid:none;marker-end:none;stroke-miterlimit:10.000000;stroke-dashoffset:0.0000000;stroke-opacity:1.0000000;visibility:visible;display:inline;overflow:visible"
       d="M 230.09704,137.22381 L 153.41266,301.04953 L 230.09704,466.61809 L 230.09704,137.22381 z "
       id="rect3102"
       sodipodi:nodetypes="cccc" />
    <rect
       rx="24.243662"
       ry="25.253813"
       y="56.758968"
       x="64.780235"
       height="495.11642"
       width="608.19958"
       id="rect3142"
       style="opacity:1.0000000;color:#000000;fill:#606060;fill-opacity:1.0000000;fill-rule:evenodd;stroke:#000000;stroke-width:1.8077461;stroke-linecap:round;stroke-linejoin:miter;marker:none;marker-start:none;marker-mid:none;marker-end:none;stroke-miterlimit:10.000000;stroke-dasharray:none;stroke-dashoffset:0.0000000;stroke-opacity:1.0000000;visibility:visible;display:inline;overflow:visible" />
    <rect
       ry="25.253813"
       rx="24.243662"
       y="81.045204"
       x="91.685806"
       height="446.54391"
       width="554.38849"
       id="rect3144"
       style="opacity:1.0000000;color:#000000;fill:none;fill-opacity:1.0000000;fill-rule:evenodd;stroke:#ffffff;stroke-width:20.897539;stroke-linecap:round;stroke-linejoin:miter;marker:none;marker-start:none;marker-mid:none;marker-end:none;stroke-miterlimit:10.000000;stroke-dasharray:none;stroke-dashoffset:0.0000000;stroke-opacity:1.0000000;visibility:visible;display:inline;overflow:visible" />
    <path
       style="opacity:1.0000000;color:#000000;fill:#ffffff;fill-opacity:1.0000000;fill-rule:evenodd;stroke:none;stroke-width:8.8582678;stroke-linecap:round;stroke-linejoin:miter;marker:none;marker-start:none;marker-mid:none;marker-end:none;stroke-miterlimit:10.000000;stroke-dasharray:none;stroke-dashoffset:0.0000000;stroke-opacity:1.0000000;visibility:visible;display:inline;overflow:visible"
       d="M 369.29536,117.55406 C 355.58629,117.55406 344.43829,131.79253 344.43829,149.34975 C 344.43829,166.90699 355.58626,181.14546 369.29536,181.14546 C 383.00444,181.14546 394.07617,166.90699 394.07617,149.34975 C 394.07617,131.79253 383.00444,117.55405 369.29536,117.55406 z M 327.35859,182.74668 C 319.28558,182.74668 312.78789,187.02556 310.66012,192.73526 C 309.54692,194.88322 308.67766,197.28975 308.67766,200.05513 L 308.67766,328.68664 C 308.67766,336.27118 313.54667,342.33516 319.58122,342.33516 L 322.24992,342.33516 C 328.28447,342.33516 333.07726,336.27118 333.07723,328.68664 L 333.07723,227.35216 L 337.19467,227.35216 C 337.19376,227.40933 337.11842,227.44731 337.11842,227.50465 L 337.11842,311.68319 L 337.11842,469.51795 C 337.11842,477.10248 343.39608,483.24273 351.22442,483.24271 C 359.05276,483.24271 365.33043,477.10248 365.33043,469.51795 L 365.33043,325.33171 L 372.57406,325.33171 L 372.57406,469.51795 C 372.57406,477.10248 378.85172,483.24273 386.68005,483.24271 C 394.50839,483.24271 400.86231,477.10248 400.86231,469.51795 L 400.86231,312.90317 C 400.91250,312.48101 401.16731,312.11584 401.16731,311.68319 L 401.16731,227.50465 C 401.16731,227.44731 401.09196,227.40933 401.09106,227.35216 L 405.43723,227.35216 L 405.43723,328.68664 C 405.43723,336.27118 410.30624,342.33516 416.34079,342.33516 L 418.93325,342.33516 C 424.96780,342.33516 429.83683,336.27118 429.83681,328.68664 L 429.83681,214.23738 C 429.84949,214.02356 429.98930,213.84372 429.98930,213.62739 L 429.98930,196.47144 C 429.98930,188.88690 422.08916,182.74668 412.29962,182.74668 L 327.35859,182.74668 z "
       id="path3148" />
    <path
       style="opacity:1.0000000;color:#000000;fill:#ffffff;fill-opacity:1.0000000;fill-rule:evenodd;stroke:none;stroke-width:8.8582678;stroke-linecap:round;stroke-linejoin:miter;marker:none;marker-start:none;marker-mid:none;marker-end:none;stroke-miterlimit:10.000000;stroke-dasharray:none;stroke-dashoffset:0.0000000;stroke-opacity:1.0000000;visibility:visible;display:inline;overflow:visible"
       d="M 522.86019,117.55406 C 509.15112,117.55406 498.00315,131.79253 498.00312,149.34975 C 498.00312,166.90699 509.15112,181.14546 522.86019,181.14546 C 536.56927,181.14546 547.71728,166.90699 547.71726,149.34975 C 547.71726,131.79253 536.56927,117.55405 522.86019,117.55406 z M 480.92342,182.74668 C 472.91600,182.74668 466.48637,186.94472 464.30121,192.58275 C 463.14396,194.75810 462.31874,197.23076 462.31874,200.05513 L 462.31874,284.30992 C 462.31874,291.89445 467.18775,297.95843 473.22231,297.95843 L 475.81476,297.95843 C 481.84931,297.95843 486.71834,291.89445 486.71832,284.30992 L 486.71832,227.35216 L 490.75950,227.35216 C 490.75859,227.40933 490.68325,227.44731 490.68325,227.50465 L 490.68325,288.96108 L 490.30201,288.96108 L 463.23372,359.26236 L 490.68325,359.26236 L 490.68325,469.51795 C 490.68325,477.10248 496.96092,483.24273 504.78926,483.24271 C 506.74634,483.24271 508.66372,482.86617 510.35540,482.17522 C 515.43050,480.10241 518.97154,475.20635 518.97150,469.51795 L 518.97150,359.26236 L 526.13888,359.26236 L 526.13888,469.51795 C 526.13888,477.10248 532.49280,483.24273 540.32114,483.24271 C 548.14948,483.24271 554.42717,477.10248 554.42714,469.51795 L 554.42714,359.26236 L 584.01163,359.26236 L 555.64712,288.96108 L 554.80838,288.96108 L 554.80838,227.50465 C 554.80838,227.44733 554.73304,227.40929 554.73214,227.35216 L 559.00206,227.35216 L 559.00206,284.30992 C 559.00206,291.89445 563.87107,297.95843 569.90562,297.95843 L 572.57432,297.95843 C 578.60888,297.95843 583.40161,291.89445 583.40163,284.30992 L 583.40163,214.46613 C 583.42563,214.17291 583.63039,213.92545 583.63039,213.62739 L 583.63039,196.47144 C 583.63039,188.88690 575.73026,182.74668 565.94069,182.74668 L 480.92342,182.74668 z "
       id="path3166" />
    <path
       sodipodi:nodetypes="cccc"
       id="path3184"
       d="M 230.09704,137.22381 L 153.41266,301.04953 L 230.09704,466.61809 L 230.09704,137.22381 z "
       style="color:#000000;fill:#ffffff;fill-opacity:1.0000000;fill-rule:evenodd;stroke:none;stroke-width:8.8582678;stroke-linecap:round;stroke-linejoin:miter;marker:none;marker-start:none;marker-mid:none;marker-end:none;stroke-miterlimit:10.000000;stroke-dashoffset:0.0000000;stroke-opacity:1.0000000;visibility:visible;display:inline;overflow:visible" />
    <g
       id="g3430"
       style="fill:#ffffff;fill-opacity:1.0000000"
       transform="matrix(1.895791,0.000000,0.000000,1.895791,-82.59223,474.5729)">
      <path
         sodipodi:type="arc"
         style="opacity:1.0000000;color:#000000;fill:#ffffff;fill-opacity:1.0000000;fill-rule:evenodd;stroke:none;stroke-width:8.8582678;stroke-linecap:round;stroke-linejoin:miter;marker:none;marker-start:none;marker-mid:none;marker-end:none;stroke-miterlimit:10.000000;stroke-dasharray:none;stroke-dashoffset:0.0000000;stroke-opacity:1.0000000;visibility:visible;display:inline;overflow:visible"
         id="path3432"
         sodipodi:cx="453.75000"
         sodipodi:cy="106.64790"
         sodipodi:rx="6.6071429"
         sodipodi:ry="10.357142"
         d="M 460.35714 106.64790 A 6.6071429 10.357142 0 1 1  447.14286,106.64790 A 6.6071429 10.357142 0 1 1  460.35714 106.64790 z"
         transform="matrix(1.540541,0.000000,0.000000,1.258620,-548.4845,-20.97422)" />
      <rect
         style="opacity:1.0000000;color:#000000;fill:#ffffff;fill-opacity:1.0000000;fill-rule:evenodd;stroke:none;stroke-width:8.8582678;stroke-linecap:round;stroke-linejoin:miter;marker:none;marker-start:none;marker-mid:none;marker-end:none;stroke-miterlimit:10.000000;stroke-dasharray:none;stroke-dashoffset:0.0000000;stroke-opacity:1.0000000;visibility:visible;display:inline;overflow:visible"
         id="rect3434"
         width="10.000052"
         height="63.928524"
         x="125.71429"
         y="128.43362"
         rx="2.3548427"
         ry="2.9596910" />
      <rect
         ry="2.9596910"
         rx="2.3548427"
         y="128.43362"
         x="165.35715"
         height="63.928524"
         width="10.000052"
         id="rect3436"
         style="opacity:1.0000000;color:#000000;fill:#ffffff;fill-opacity:1.0000000;fill-rule:evenodd;stroke:none;stroke-width:8.8582678;stroke-linecap:round;stroke-linejoin:miter;marker:none;marker-start:none;marker-mid:none;marker-end:none;stroke-miterlimit:10.000000;stroke-dasharray:none;stroke-dashoffset:0.0000000;stroke-opacity:1.0000000;visibility:visible;display:inline;overflow:visible" />
      <rect
         style="opacity:1.0000000;color:#000000;fill:#ffffff;fill-opacity:1.0000000;fill-rule:evenodd;stroke:none;stroke-width:8.8582678;stroke-linecap:round;stroke-linejoin:miter;marker:none;marker-start:none;marker-mid:none;marker-end:none;stroke-miterlimit:10.000000;stroke-dasharray:none;stroke-dashoffset:0.0000000;stroke-opacity:1.0000000;visibility:visible;display:inline;overflow:visible"
         id="rect3438"
         width="49.311127"
         height="18.257614"
         x="126.11475"
         y="126.96170"
         rx="3.8201513"
         ry="2.9596910" />
      <rect
         style="opacity:1.0000000;color:#000000;fill:#ffffff;fill-opacity:1.0000000;fill-rule:evenodd;stroke:none;stroke-width:8.8582678;stroke-linecap:round;stroke-linejoin:miter;marker:none;marker-start:none;marker-mid:none;marker-end:none;stroke-miterlimit:10.000000;stroke-dasharray:none;stroke-dashoffset:0.0000000;stroke-opacity:1.0000000;visibility:visible;display:inline;overflow:visible"
         id="rect3440"
         width="26.263966"
         height="45.709404"
         x="137.34595"
         y="139.68193"
         rx="3.8201513"
         ry="2.9596910" />
      <rect
         style="opacity:1.0000000;color:#000000;fill:#ffffff;fill-opacity:1.0000000;fill-rule:evenodd;stroke:none;stroke-width:8.8582678;stroke-linecap:round;stroke-linejoin:miter;marker:none;marker-start:none;marker-mid:none;marker-end:none;stroke-miterlimit:10.000000;stroke-dasharray:none;stroke-dashoffset:0.0000000;stroke-opacity:1.0000000;visibility:visible;display:inline;overflow:visible"
         id="rect3442"
         width="11.582652"
         height="76.334892"
         x="137.34592"
         y="173.77458"
         rx="3.0548313"
         ry="2.9596910" />
      <rect
         ry="2.9596910"
         rx="3.0548313"
         y="173.77458"
         x="137.34592"
         height="76.334892"
         width="11.582652"
         id="rect3444"
         style="opacity:1.0000000;color:#000000;fill:#ffffff;fill-opacity:1.0000000;fill-rule:evenodd;stroke:none;stroke-width:8.8582678;stroke-linecap:round;stroke-linejoin:miter;marker:none;marker-start:none;marker-mid:none;marker-end:none;stroke-miterlimit:10.000000;stroke-dasharray:none;stroke-dashoffset:0.0000000;stroke-opacity:1.0000000;visibility:visible;display:inline;overflow:visible" />
      <rect
         style="opacity:1.0000000;color:#000000;fill:#ffffff;fill-opacity:1.0000000;fill-rule:evenodd;stroke:none;stroke-width:8.8582678;stroke-linecap:round;stroke-linejoin:miter;marker:none;marker-start:none;marker-mid:none;marker-end:none;stroke-miterlimit:10.000000;stroke-dasharray:none;stroke-dashoffset:0.0000000;stroke-opacity:1.0000000;visibility:visible;display:inline;overflow:visible"
         id="rect3446"
         width="11.582652"
         height="76.334892"
         x="151.88977"
         y="173.77458"
         rx="3.0548313"
         ry="2.9596910" />
    </g>
    <path
       style="color:#000000;fill:#ffffff;fill-opacity:1.0000000;fill-rule:evenodd;stroke:none;stroke-width:8.8582678;stroke-linecap:round;stroke-linejoin:miter;marker:none;marker-start:none;marker-mid:none;marker-end:none;stroke-miterlimit:10.000000;stroke-dashoffset:0.0000000;stroke-opacity:1.0000000;visibility:visible;display:inline;overflow:visible"
       d="M 232.64816,678.68203 L 173.06615,805.97083 L 232.64816,934.61383 L 232.64816,678.68203 z "
       id="path3448"
       sodipodi:nodetypes="cccc" />
    <rect
       rx="24.243662"
       ry="25.253815"
       y="614.30084"
       x="64.255684"
       height="384.69412"
       width="277.20291"
       id="rect3450"
       style="opacity:1.0000000;color:#000000;fill:#606060;fill-opacity:1.0000000;fill-rule:evenodd;stroke:#000000;stroke-width:1.4045773;stroke-linecap:round;stroke-linejoin:miter;marker:none;marker-start:none;marker-mid:none;marker-end:none;stroke-miterlimit:10.000000;stroke-dasharray:none;stroke-dashoffset:0.0000000;stroke-opacity:1.0000000;visibility:visible;display:inline;overflow:visible" />
    <rect
       ry="25.253815"
       rx="24.243662"
       y="633.17059"
       x="87.380600"
       height="346.95441"
       width="230.95305"
       id="rect3452"
       style="opacity:1.0000000;color:#000000;fill:none;fill-opacity:1.0000000;fill-rule:evenodd;stroke:#ffffff;stroke-width:16.236910;stroke-linecap:round;stroke-linejoin:miter;marker:none;marker-start:none;marker-mid:none;marker-end:none;stroke-miterlimit:10.000000;stroke-dasharray:none;stroke-dashoffset:0.0000000;stroke-opacity:1.0000000;visibility:visible;display:inline;overflow:visible" />
    <path
       style="opacity:1.0000000;color:#000000;fill:#ffffff;fill-opacity:1.0000000;fill-rule:evenodd;stroke:none;stroke-width:8.8582678;stroke-linecap:round;stroke-linejoin:miter;marker:none;marker-start:none;marker-mid:none;marker-end:none;stroke-miterlimit:10.000000;stroke-dasharray:none;stroke-dashoffset:0.0000000;stroke-opacity:1.0000000;visibility:visible;display:inline;overflow:visible"
       d="M 202.82754,664.58203 C 192.17590,664.58203 183.51417,675.64503 183.51417,689.28653 C 183.51417,702.92813 192.17588,713.99113 202.82754,713.99113 C 213.47918,713.99113 222.08166,702.92813 222.08166,689.28653 C 222.08166,675.64503 213.47918,664.58203 202.82754,664.58203 z M 170.24363,715.23523 C 163.97109,715.23523 158.92253,718.55983 157.26929,722.99613 C 156.40437,724.66503 155.72897,726.53483 155.72897,728.68353 L 155.72897,828.62723 C 155.72897,834.52023 159.51209,839.23183 164.20079,839.23183 L 166.27431,839.23183 C 170.96302,839.23183 174.68690,834.52023 174.68688,828.62723 L 174.68688,749.89263 L 177.88603,749.89263 C 177.88533,749.93703 177.82679,749.96653 177.82679,750.01113 L 177.82679,815.41593 L 177.82679,938.04993 C 177.82679,943.94293 182.70439,948.71373 188.78683,948.71373 C 194.86927,948.71373 199.74688,943.94293 199.74688,938.04993 L 199.74688,826.02053 L 205.37502,826.02053 L 205.37502,938.04993 C 205.37502,943.94293 210.25261,948.71373 216.33504,948.71373 C 222.41748,948.71373 227.35433,943.94293 227.35433,938.04993 L 227.35433,816.36383 C 227.39333,816.03583 227.59131,815.75213 227.59131,815.41593 L 227.59131,750.01113 C 227.59131,749.96653 227.53277,749.93703 227.53207,749.89263 L 230.90894,749.89263 L 230.90894,828.62723 C 230.90894,834.52023 234.69205,839.23183 239.38076,839.23183 L 241.39504,839.23183 C 246.08375,839.23183 249.86687,834.52023 249.86685,828.62723 L 249.86685,739.70273 C 249.87671,739.53663 249.98534,739.39693 249.98534,739.22883 L 249.98534,725.89903 C 249.98534,720.00603 243.84711,715.23523 236.24086,715.23523 L 170.24363,715.23523 z "
       id="path3454" />
    <g
       id="g3458"
       style="fill:#ffffff;fill-opacity:1.0000000"
       transform="matrix(1.915037,0.000000,0.000000,1.915037,240.2241,471.2017)">
      <path
         sodipodi:type="arc"
         style="opacity:1.0000000;color:#000000;fill:#ffffff;fill-opacity:1.0000000;fill-rule:evenodd;stroke:none;stroke-width:8.8582678;stroke-linecap:round;stroke-linejoin:miter;marker:none;marker-start:none;marker-mid:none;marker-end:none;stroke-miterlimit:10.000000;stroke-dasharray:none;stroke-dashoffset:0.0000000;stroke-opacity:1.0000000;visibility:visible;display:inline;overflow:visible"
         id="path3460"
         sodipodi:cx="453.75000"
         sodipodi:cy="106.64790"
         sodipodi:rx="6.6071429"
         sodipodi:ry="10.357142"
         d="M 460.35714 106.64790 A 6.6071429 10.357142 0 1 1  447.14286,106.64790 A 6.6071429 10.357142 0 1 1  460.35714 106.64790 z"
         transform="matrix(1.540541,0.000000,0.000000,1.258620,-548.4845,-20.97422)" />
      <rect
         style="opacity:1.0000000;color:#000000;fill:#ffffff;fill-opacity:1.0000000;fill-rule:evenodd;stroke:none;stroke-width:8.8582678;stroke-linecap:round;stroke-linejoin:miter;marker:none;marker-start:none;marker-mid:none;marker-end:none;stroke-miterlimit:10.000000;stroke-dasharray:none;stroke-dashoffset:0.0000000;stroke-opacity:1.0000000;visibility:visible;display:inline;overflow:visible"
         id="rect3462"
         width="10.000052"
         height="63.928524"
         x="125.71429"
         y="128.43362"
         rx="2.3311765"
         ry="2.9299462" />
      <rect
         ry="2.9299462"
         rx="2.3311765"
         y="128.43362"
         x="165.35715"
         height="63.928524"
         width="10.000052"
         id="rect3464"
         style="opacity:1.0000000;color:#000000;fill:#ffffff;fill-opacity:1.0000000;fill-rule:evenodd;stroke:none;stroke-width:8.8582678;stroke-linecap:round;stroke-linejoin:miter;marker:none;marker-start:none;marker-mid:none;marker-end:none;stroke-miterlimit:10.000000;stroke-dasharray:none;stroke-dashoffset:0.0000000;stroke-opacity:1.0000000;visibility:visible;display:inline;overflow:visible" />
      <rect
         style="opacity:1.0000000;color:#000000;fill:#ffffff;fill-opacity:1.0000000;fill-rule:evenodd;stroke:none;stroke-width:8.8582678;stroke-linecap:round;stroke-linejoin:miter;marker:none;marker-start:none;marker-mid:none;marker-end:none;stroke-miterlimit:10.000000;stroke-dasharray:none;stroke-dashoffset:0.0000000;stroke-opacity:1.0000000;visibility:visible;display:inline;overflow:visible"
         id="rect3466"
         width="49.311127"
         height="18.257614"
         x="126.11475"
         y="126.96170"
         rx="3.7817588"
         ry="2.9299462" />
      <rect
         style="opacity:1.0000000;color:#000000;fill:#ffffff;fill-opacity:1.0000000;fill-rule:evenodd;stroke:none;stroke-width:8.8582678;stroke-linecap:round;stroke-linejoin:miter;marker:none;marker-start:none;marker-mid:none;marker-end:none;stroke-miterlimit:10.000000;stroke-dasharray:none;stroke-dashoffset:0.0000000;stroke-opacity:1.0000000;visibility:visible;display:inline;overflow:visible"
         id="rect3468"
         width="26.263966"
         height="45.709404"
         x="137.34595"
         y="139.68193"
         rx="3.7817588"
         ry="2.9299462" />
      <rect
         style="opacity:1.0000000;color:#000000;fill:#ffffff;fill-opacity:1.0000000;fill-rule:evenodd;stroke:none;stroke-width:8.8582678;stroke-linecap:round;stroke-linejoin:miter;marker:none;marker-start:none;marker-mid:none;marker-end:none;stroke-miterlimit:10.000000;stroke-dasharray:none;stroke-dashoffset:0.0000000;stroke-opacity:1.0000000;visibility:visible;display:inline;overflow:visible"
         id="rect3470"
         width="11.582652"
         height="76.334892"
         x="137.34592"
         y="173.77458"
         rx="3.0241303"
         ry="2.9299462" />
      <rect
         ry="2.9299462"
         rx="3.0241303"
         y="173.77458"
         x="137.34592"
         height="76.334892"
         width="11.582652"
         id="rect3472"
         style="opacity:1.0000000;color:#000000;fill:#ffffff;fill-opacity:1.0000000;fill-rule:evenodd;stroke:none;stroke-width:8.8582678;stroke-linecap:round;stroke-linejoin:miter;marker:none;marker-start:none;marker-mid:none;marker-end:none;stroke-miterlimit:10.000000;stroke-dasharray:none;stroke-dashoffset:0.0000000;stroke-opacity:1.0000000;visibility:visible;display:inline;overflow:visible" />
      <rect
         style="opacity:1.0000000;color:#000000;fill:#ffffff;fill-opacity:1.0000000;fill-rule:evenodd;stroke:none;stroke-width:8.8582678;stroke-linecap:round;stroke-linejoin:miter;marker:none;marker-start:none;marker-mid:none;marker-end:none;stroke-miterlimit:10.000000;stroke-dasharray:none;stroke-dashoffset:0.0000000;stroke-opacity:1.0000000;visibility:visible;display:inline;overflow:visible"
         id="rect3474"
         width="11.582652"
         height="76.334892"
         x="151.88977"
         y="173.77458"
         rx="3.0241303"
         ry="2.9299462" />
    </g>
    <path
       style="color:#000000;fill:#ffffff;fill-opacity:1.0000000;fill-rule:evenodd;stroke:none;stroke-width:8.8582678;stroke-linecap:round;stroke-linejoin:miter;marker:none;marker-start:none;marker-mid:none;marker-end:none;stroke-miterlimit:10.000000;stroke-dashoffset:0.0000000;stroke-opacity:1.0000000;visibility:visible;display:inline;overflow:visible"
       d="M 558.66487,677.38289 L 498.47799,805.96396 L 558.66487,935.91289 L 558.66487,677.38289 z "
       id="path3476"
       sodipodi:nodetypes="cccc" />
    <rect
       rx="24.243662"
       ry="25.253815"
       y="612.34814"
       x="388.56290"
       height="388.59955"
       width="280.01709"
       id="rect3478"
       style="opacity:1.0000000;color:#000000;fill:#606060;fill-opacity:1.0000000;fill-rule:evenodd;stroke:#000000;stroke-width:1.4188366;stroke-linecap:round;stroke-linejoin:miter;marker:none;marker-start:none;marker-mid:none;marker-end:none;stroke-miterlimit:10.000000;stroke-dasharray:none;stroke-dashoffset:0.0000000;stroke-opacity:1.0000000;visibility:visible;display:inline;overflow:visible" />
    <rect
       ry="25.253815"
       rx="24.243662"
       y="631.40955"
       x="411.92258"
       height="350.47668"
       width="233.29768"
       id="rect3480"
       style="opacity:1.0000000;color:#000000;fill:none;fill-opacity:1.0000000;fill-rule:evenodd;stroke:#ffffff;stroke-width:16.401747;stroke-linecap:round;stroke-linejoin:miter;marker:none;marker-start:none;marker-mid:none;marker-end:none;stroke-miterlimit:10.000000;stroke-dasharray:none;stroke-dashoffset:0.0000000;stroke-opacity:1.0000000;visibility:visible;display:inline;overflow:visible" />
    <path
       style="opacity:1.0000000;color:#000000;fill:#ffffff;fill-opacity:1.0000000;fill-rule:evenodd;stroke:none;stroke-width:8.8582678;stroke-linecap:round;stroke-linejoin:miter;marker:none;marker-start:none;marker-mid:none;marker-end:none;stroke-miterlimit:10.000000;stroke-dasharray:none;stroke-dashoffset:0.0000000;stroke-opacity:1.0000000;visibility:visible;display:inline;overflow:visible"
       d="M 528.33378,664.17601 C 517.65171,664.17601 508.96523,675.27060 508.96521,688.95115 C 508.96521,702.63171 517.65171,713.72630 528.33378,713.72630 C 539.01587,713.72630 547.70237,702.63171 547.70236,688.95115 C 547.70236,675.27060 539.01587,664.17600 528.33378,664.17601 z M 495.65675,714.97397 C 489.41738,714.97397 484.40743,718.24507 482.70476,722.63821 C 481.80303,724.33324 481.16002,726.25993 481.16002,728.46067 L 481.16002,794.11182 C 481.16002,800.02167 484.95394,804.74671 489.65606,804.74671 L 491.67609,804.74671 C 496.37820,804.74671 500.17213,800.02167 500.17212,794.11182 L 500.17212,749.73046 L 503.32100,749.73046 C 503.32029,749.77500 503.26158,749.80460 503.26158,749.84928 L 503.26158,797.73599 L 502.96452,797.73599 L 481.87297,852.51459 L 503.26158,852.51459 L 503.26158,938.42549 C 503.26158,944.33539 508.15313,949.11979 514.25296,949.11979 C 515.77791,949.11979 517.27193,948.82639 518.59008,948.28799 C 522.54459,946.67289 525.30376,942.85789 525.30373,938.42549 L 525.30373,852.51459 L 530.88853,852.51459 L 530.88853,938.42549 C 530.88853,944.33539 535.83949,949.11979 541.93932,949.11979 C 548.03914,949.11979 552.93071,944.33539 552.93068,938.42549 L 552.93068,852.51459 L 575.98285,852.51459 L 553.88129,797.73599 L 553.22774,797.73599 L 553.22774,749.84928 C 553.22774,749.80461 553.16904,749.77497 553.16834,749.73046 L 556.49545,749.73046 L 556.49545,794.11182 C 556.49545,800.02167 560.28937,804.74671 564.99148,804.74671 L 567.07093,804.74671 C 571.77304,804.74671 575.50753,800.02167 575.50754,794.11182 L 575.50754,739.68969 C 575.52624,739.46122 575.68579,739.26840 575.68579,739.03615 L 575.68579,725.66827 C 575.68579,719.75841 569.53003,714.97397 561.90202,714.97397 L 495.65675,714.97397 z "
       id="path3482" />
  </g>
</svg>
