<?xml version="1.0" encoding="UTF-8" standalone="no"?>
<svg
   xmlns:dc="http://purl.org/dc/elements/1.1/"
   xmlns:cc="http://creativecommons.org/ns#"
   xmlns:rdf="http://www.w3.org/1999/02/22-rdf-syntax-ns#"
   xmlns:svg="http://www.w3.org/2000/svg"
   xmlns="http://www.w3.org/2000/svg"
   id="svg8"
   version="1.1"
   viewBox="0 0 109.36111 29.633333"
   height="29.633333mm"
   width="109.36111mm">
  <defs
     id="defs2" />
  <metadata
     id="metadata5">
    <rdf:RDF>
      <cc:Work
         rdf:about="">
        <dc:format>image/svg+xml</dc:format>
        <dc:type
           rdf:resource="http://purl.org/dc/dcmitype/StillImage" />
        <dc:title></dc:title>
      </cc:Work>
    </rdf:RDF>
  </metadata>
  <g
     transform="translate(-153.20634,-196.00476)"
     id="layer1">
    <g
       id="flowRoot815"
       style="font-style:normal;font-variant:normal;font-weight:normal;font-stretch:normal;font-size:40px;line-height:81.09999895%;font-family:'Linux Libertine O';-inkscape-font-specification:'Linux Libertine O';letter-spacing:0px;word-spacing:0px;fill:#000000;fill-opacity:1;stroke:none;stroke-width:1px;stroke-linecap:butt;stroke-linejoin:miter;stroke-opacity:1"
       transform="matrix(0.38616026,0,0,0.38616026,574.02949,123.19038)"
       aria-label="technikum29">
      <path
         id="path875"
         style="font-style:normal;font-variant:normal;font-weight:normal;font-stretch:normal;font-family:'Futura Std';-inkscape-font-specification:'Futura Std'"
         d="m -1025.0277,227.32922 h 3.36 v -2.96 h -3.36 v -6.76 h -3.2 v 6.76 h -1.96 v 2.96 h 1.96 v 15.84 h 3.2 z" />
      <path
         id="path877"
         style="font-style:normal;font-variant:normal;font-weight:normal;font-stretch:normal;font-family:'Futura Std';-inkscape-font-specification:'Futura Std'"
         d="m -1002.4184,234.44922 c 0.32,-5.6 -2.88,-10.6 -8.92,-10.6 -5.88,0 -9.12,4.6 -9.12,10.16 0,5.4 3.6,9.68 9.2,9.68 3.84,0 6.88,-1.92 8.68,-5.28 l -2.72,-1.56 c -1.24,2.24 -3,3.88 -5.72,3.88 -3.64,0 -6.12,-2.8 -6.16,-6.28 z m -14.6,-2.72 c 0.4,-2.72 2.96,-4.92 5.72,-4.92 2.8,0 5.08,2.2 5.52,4.92 z" />
      <path
         id="path879"
         style="font-style:normal;font-variant:normal;font-weight:normal;font-stretch:normal;font-family:'Futura Std';-inkscape-font-specification:'Futura Std'"
         d="m -984.03711,225.72922 c -1.68,-1.2 -3.76,-1.88 -5.8,-1.88 -5.52,0 -10.04,4.32 -10.04,9.92 0,5.68 4.32,9.92 10,9.92 2.24,0 4.12,-0.68 5.96,-1.92 v -4.28 h -0.08 c -1.56,2.04 -3.44,3.24 -6.12,3.24 -3.92,0 -6.48,-3.24 -6.48,-6.96 0,-3.76 2.76,-6.96 6.64,-6.96 2.52,0 4.36,1.28 5.84,3.16 h 0.08 z" />
      <path
         id="path881"
         style="font-style:normal;font-variant:normal;font-weight:normal;font-stretch:normal;font-family:'Futura Std';-inkscape-font-specification:'Futura Std'"
         d="m -978.93461,210.16922 v 33 h 3.2 v -8.92 c 0,-3.36 0.28,-7.44 4.68,-7.44 3.72,0 3.96,2.72 3.96,5.76 v 10.6 h 3.2 v -11.16 c 0,-4.4 -1.2,-8.16 -6.4,-8.16 -2.32,0 -4.04,1 -5.36,2.8 l -0.08,-0.08 v -16.4 z" />
      <path
         id="path883"
         style="font-style:normal;font-variant:normal;font-weight:normal;font-stretch:normal;font-family:'Futura Std';-inkscape-font-specification:'Futura Std'"
         d="m -954.64086,224.36922 h -3.2 v 18.8 h 3.2 v -8.92 c 0,-3.36 0.28,-7.44 4.68,-7.44 3.72,0 3.96,2.72 3.96,5.76 v 10.6 h 3.2 v -11.16 c 0,-4.4 -1.2,-8.16 -6.4,-8.16 -2.32,0 -4.04,1 -5.36,2.8 h -0.08 z" />
      <path
         id="path885"
         style="font-style:normal;font-variant:normal;font-weight:normal;font-stretch:normal;font-family:'Futura Std';-inkscape-font-specification:'Futura Std'"
         d="m -932.94711,224.36922 h -3.2 v 18.8 h 3.2 z m -1.6,-9.36 c -1.24,0 -2.28,1.04 -2.28,2.28 0,1.28 1.04,2.28 2.28,2.28 1.24,0 2.28,-1 2.28,-2.28 0,-1.24 -1.04,-2.28 -2.28,-2.28 z" />
      <path
         id="path887"
         style="font-style:normal;font-variant:normal;font-weight:normal;font-stretch:normal;font-family:'Futura Std';-inkscape-font-specification:'Futura Std'"
         d="m -923.23836,210.16922 h -3.2 v 33 h 3.2 v -7.72 l 0.84,-0.84 7.56,8.56 h 4.24 l -9.56,-10.8 8.04,-8 h -4.28 l -6.84,6.96 z" />
      <path
         id="path889"
         style="font-style:normal;font-variant:normal;font-weight:normal;font-stretch:normal;font-family:'Futura Std';-inkscape-font-specification:'Futura Std'"
         d="m -904.49023,224.36922 h -3.2 v 10.84 c 0,5 1.88,8.48 7.44,8.48 5.56,0 7.44,-3.48 7.44,-8.48 v -10.84 h -3.2 v 10.48 c 0,3.16 -0.36,5.88 -4.24,5.88 -3.88,0 -4.24,-2.72 -4.24,-5.88 z" />
      <path
         id="path891"
         style="font-style:normal;font-variant:normal;font-weight:normal;font-stretch:normal;font-family:'Futura Std';-inkscape-font-specification:'Futura Std'"
         d="m -883.78148,224.36922 h -3.2 v 18.8 h 3.2 v -9.72 c 0,-2.84 0.4,-6.64 4.16,-6.64 3.08,0 3.36,3.36 3.36,5.68 v 10.68 h 3.2 v -9.96 c 0,-2.84 0.4,-6.4 4.08,-6.4 3.28,0 3.44,3 3.44,5.44 v 10.92 h 3.2 v -11.44 c 0,-3.96 -1.2,-7.88 -6,-7.88 -2.28,0 -4.52,1.04 -5.64,3.12 -1,-1.96 -3,-3.12 -5.2,-3.12 -1.92,0 -3.52,1 -4.52,2.56 h -0.08 z" />
      <path
         id="path893"
         style="font-style:normal;font-variant:normal;font-weight:normal;font-stretch:normal;font-family:'Futura Std';-inkscape-font-specification:'Futura Std'"
         d="m -850.87836,240.04922 10.44,-12.28 c 1.56,-1.8 2.28,-3.92 2.28,-6.36 0,-5.24 -4.44,-8.92 -9.48,-8.92 -5.32,0 -9.2,4.04 -9.32,9.32 h 3.36 c 0.08,-3.52 2.44,-6.2 6.08,-6.2 3.28,0 6,2.48 6,5.84 0,1.96 -0.84,3.6 -2.04,5.04 l -14.12,16.68 h 19.52 v -3.12 z" />
      <path
         id="path895"
         style="font-style:normal;font-variant:normal;font-weight:normal;font-stretch:normal;font-family:'Futura Std';-inkscape-font-specification:'Futura Std'"
         d="m -824.90898,243.68922 10,-13.68 c 1.56,-2.16 2.8,-4.52 2.8,-7.24 0,-5.72 -4.72,-10.28 -10.4,-10.28 -5.68,0 -10.4,4.56 -10.4,10.28 0,5.48 4.24,9.96 9.76,9.96 0.92,0 1.8,-0.16 2.6,-0.4 l 0.08,0.08 -6.96,9.56 z m 2.4,-28.08 c 3.88,0 7.04,3.16 7.04,7.04 0,3.92 -3.16,6.96 -7.04,6.96 -3.92,0 -7.04,-3.04 -7.04,-6.96 0,-3.88 3.12,-7.04 7.04,-7.04 z" />
    </g>
    <g
       id="layer1-4"
       transform="matrix(0.32484146,0,0,0.32484146,250.26857,239.65125)">
      <path
         id="path68"
         style="fill:none;stroke:#000000;stroke-width:2.05023098;stroke-linecap:butt;stroke-linejoin:miter;stroke-miterlimit:4;stroke-dasharray:none;stroke-opacity:1"
         d="m -264.18245,-127.92856 -29.56094,79.406425 h 18.87829 c 0,-0.09276 -0.008,-0.185612 -0.008,-0.278468 0,-17.253313 10.86055,-31.959189 26.12176,-37.686746 z" />
      <path
         id="path76"
         style="fill:none;stroke:#000000;stroke-width:2.05023098;stroke-linecap:butt;stroke-linejoin:miter;stroke-miterlimit:4;stroke-dasharray:none;stroke-opacity:1"
         d="m -247.00929,-81.812589 c -13.36196,5.023732 -22.8592,17.903005 -22.8592,33.012024 v 0.278468 h 11.86727 c -0.007,-0.09286 0,-0.185612 0,-0.278468 0,-10.00814 6.28299,-18.554198 15.12913,-21.90432 z" />
      <path
         id="path84"
         style="fill:none;stroke:#000000;stroke-width:2.05023098;stroke-linecap:butt;stroke-linejoin:miter;stroke-miterlimit:4;stroke-dasharray:none;stroke-opacity:1"
         d="m -241.18365,-66.162322 c -7.00173,2.662607 -11.98313,9.42819 -11.98313,17.361778 0,0.09276 0.008,0.185612 0.008,0.278469 h 18.53709 z" />
    </g>
  </g>
</svg>
